<svg xmlns:dc="http://purl.org/dc/elements/1.1/" xmlns:cc="http://creativecommons.org/ns#" xmlns:rdf="http://www.w3.org/1999/02/22-rdf-syntax-ns#" xmlns:svg="http://www.w3.org/2000/svg" xmlns="http://www.w3.org/2000/svg" xmlns:sodipodi="http://sodipodi.sourceforge.net/DTD/sodipodi-0.dtd" xmlns:inkscape="http://www.inkscape.org/namespaces/inkscape" version="1.1" x="0px" y="0px" viewBox="0 0 100 125"><title>More menu rounded</title><g transform="translate(0,52)"><path style="" d="m 58.184786,22.824347 a 8.0812206,8.0812206 0 1 1 -16.162441,0 8.0812206,8.0812206 0 1 1 16.162441,0 z" transform="translate(-0.10356522,-49.824346)" fill="#000000" fill-opacity="1" fill-rule="nonzero" stroke="none"/><path transform="matrix(0.9999727,0,0,1,-0.10241792,-24.824346)" d="m 58.184786,22.824347 a 8.0812206,8.0812206 0 1 1 -16.162441,0 8.0812206,8.0812206 0 1 1 16.162441,0 z" style="" fill="#000000" fill-opacity="1" fill-rule="nonzero" stroke="none"/><path style="" d="m 58.184786,22.824347 a 8.0812206,8.0812206 0 1 1 -16.162441,0 8.0812206,8.0812206 0 1 1 16.162441,0 z" transform="translate(-0.10356522,0.17565336)" fill="#000000" fill-opacity="1" fill-rule="nonzero" stroke="none"/></g><text x="0" y="115" fill="#000000" font-size="5px" font-weight="bold" font-family="'Helvetica Neue', Helvetica, Arial-Unicode, Arial, Sans-serif">Created by Jishnu</text><text x="0" y="120" fill="#000000" font-size="5px" font-weight="bold" font-family="'Helvetica Neue', Helvetica, Arial-Unicode, Arial, Sans-serif">from the Noun Project</text></svg>