<?xml version="1.0" encoding="UTF-8"?>
<!-- Generator: Adobe Illustrator 16.0.0, SVG Export Plug-In . SVG Version: 6.00 Build 0)  -->
<!DOCTYPE svg PUBLIC "-//W3C//DTD SVG 1.1//EN" "http://www.w3.org/Graphics/SVG/1.1/DTD/svg11.dtd">
<svg version="1.1" id="Layer_1" xmlns="http://www.w3.org/2000/svg" xmlns:xlink="http://www.w3.org/1999/xlink" x="0px" y="0px" width="512px" height="512px" viewBox="0 0 512 512" enable-background="new 0 0 512 512" xml:space="preserve">
<path d="M433.076,78.923c-30.565-30.565-80.122-30.565-110.688,0c-24.35,24.351-29.279,60.746-14.83,89.999L160.491,315.99  l0.12,0.119L56,456l139.89-104.611l0.12,0.12L343.077,204.44c29.252,14.448,65.647,9.52,89.999-14.831  C463.642,159.044,463.642,109.488,433.076,78.923z M367.407,109.073c-9.124-9.124-9.124-23.917,0-33.041  c9.125-9.124,23.917-9.124,33.041,0s9.124,23.917,0,33.041S376.532,118.197,367.407,109.073z"/>
</svg>